<svg width="22" height="21" viewBox="0 0 22 21" fill="none" xmlns="http://www.w3.org/2000/svg">
<g id="angle-small-right 1">
<path id="Vector" d="M13.9751 8.64502L9.95888 4.62877C9.79494 4.4658 9.57317 4.37433 9.34201 4.37433C9.11084 4.37433 8.88907 4.4658 8.72513 4.62877C8.64312 4.71011 8.57802 4.80689 8.5336 4.91352C8.48918 5.02014 8.46631 5.13451 8.46631 5.25002C8.46631 5.36553 8.48918 5.4799 8.5336 5.58653C8.57802 5.69315 8.64312 5.78993 8.72513 5.87127L12.7501 9.87877C12.8321 9.96011 12.8972 10.0569 12.9417 10.1635C12.9861 10.2701 13.009 10.3845 13.009 10.5C13.009 10.6155 12.9861 10.7299 12.9417 10.8365C12.8972 10.9432 12.8321 11.0399 12.7501 11.1213L8.72513 15.1288C8.56037 15.2924 8.46734 15.5147 8.46652 15.7469C8.4657 15.9791 8.55715 16.2021 8.72076 16.3669C8.88436 16.5317 9.10672 16.6247 9.33891 16.6255C9.57111 16.6263 9.79412 16.5349 9.95888 16.3713L13.9751 12.355C14.4667 11.8628 14.7428 11.1956 14.7428 10.5C14.7428 9.8044 14.4667 9.13721 13.9751 8.64502Z" fill="#CE1212"/>
</g>
</svg>
