<svg width="21" height="21" viewBox="0 0 21 21" fill="none" xmlns="http://www.w3.org/2000/svg">
<g id="fi-rr-heart" clip-path="url(#clip0_1406_2294)">
<path id="Vector" d="M15.3123 1.67697C14.327 1.6923 13.3632 1.96734 12.5183 2.47433C11.6733 2.98132 10.977 3.70231 10.4998 4.56447C10.0227 3.70231 9.32641 2.98132 8.48142 2.47433C7.63644 1.96734 6.67264 1.6923 5.68734 1.67697C4.11666 1.74521 2.63683 2.43232 1.57115 3.58817C0.505469 4.74403 -0.0594403 6.27468 -0.000158566 7.84572C-0.000158566 11.8243 4.18759 16.1696 7.69984 19.1157C8.48403 19.7747 9.47553 20.136 10.4998 20.136C11.5242 20.136 12.5157 19.7747 13.2998 19.1157C16.8121 16.1696 20.9998 11.8243 20.9998 7.84572C21.0591 6.27468 20.4942 4.74403 19.4285 3.58817C18.3629 2.43232 16.883 1.74521 15.3123 1.67697ZM12.1755 17.777C11.7065 18.1719 11.113 18.3885 10.4998 18.3885C9.88668 18.3885 9.29323 18.1719 8.82422 17.777C4.32847 14.0048 1.74984 10.3858 1.74984 7.84572C1.69003 6.7386 2.07041 5.65274 2.80803 4.82496C3.54566 3.99718 4.58067 3.49465 5.68734 3.42697C6.79401 3.49465 7.82903 3.99718 8.56665 4.82496C9.30427 5.65274 9.68466 6.7386 9.62484 7.84572C9.62484 8.07779 9.71703 8.30035 9.88112 8.46444C10.0452 8.62853 10.2678 8.72072 10.4998 8.72072C10.7319 8.72072 10.9545 8.62853 11.1186 8.46444C11.2827 8.30035 11.3748 8.07779 11.3748 7.84572C11.315 6.7386 11.6954 5.65274 12.433 4.82496C13.1707 3.99718 14.2057 3.49465 15.3123 3.42697C16.419 3.49465 17.454 3.99718 18.1916 4.82496C18.9293 5.65274 19.3097 6.7386 19.2498 7.84572C19.2498 10.3858 16.6712 14.0048 12.1755 17.7735V17.777Z" fill="#EEEBDD"/>
</g>
<defs>
<clipPath id="clip0_1406_2294">
<rect width="21" height="21" fill="white"/>
</clipPath>
</defs>
</svg>
