<svg width="18" height="18" viewBox="0 0 18 18" fill="none" xmlns="http://www.w3.org/2000/svg">
<g id="play 1">
<path id="Vector" d="M15.3705 5.97601L8.2155 0.726006C7.65667 0.316795 6.99542 0.0703515 6.30507 0.0140032C5.61473 -0.0423451 4.92227 0.0936033 4.30447 0.406774C3.68667 0.719944 3.16768 1.1981 2.80504 1.78822C2.4424 2.37834 2.25029 3.05737 2.25 3.75001V14.25C2.25012 14.943 2.44225 15.6223 2.80506 16.2127C3.16786 16.8031 3.68716 17.2814 4.30532 17.5946C4.92347 17.9077 5.61631 18.0435 6.30693 17.9868C6.99756 17.93 7.65897 17.6831 8.21775 17.2733L15.3727 12.0233C15.8477 11.675 16.2339 11.2197 16.5002 10.6943C16.7664 10.1689 16.9051 9.58823 16.9051 8.99926C16.9051 8.41028 16.7664 7.82959 16.5002 7.30421C16.2339 6.77884 15.8477 6.32356 15.3727 5.97526L15.3705 5.97601ZM14.4825 10.8135L7.3275 16.0635C6.99226 16.3085 6.59578 16.4559 6.18193 16.4895C5.76808 16.5231 5.35302 16.4415 4.98268 16.2537C4.61233 16.066 4.30116 15.7794 4.0836 15.4258C3.86604 15.0722 3.75058 14.6652 3.75 14.25V3.75001C3.74584 3.33402 3.85912 2.92529 4.07683 2.5708C4.29454 2.2163 4.60785 1.93042 4.98075 1.74601C5.29792 1.58467 5.64866 1.50039 6.0045 1.50001C6.48142 1.50183 6.94516 1.65667 7.3275 1.94176L14.4825 7.19176C14.7671 7.40078 14.9985 7.67386 15.1581 7.98891C15.3176 8.30396 15.4007 8.65213 15.4007 9.00526C15.4007 9.35838 15.3176 9.70656 15.1581 10.0216C14.9985 10.3367 14.7671 10.6097 14.4825 10.8188V10.8135Z" fill="#EEEBDD"/>
</g>
</svg>
