<svg width="18" height="18" viewBox="0 0 18 18" fill="none" xmlns="http://www.w3.org/2000/svg">
<g id="share 1" clip-path="url(#clip0_111_119)">
<path id="Vector" d="M14.4996 11.0002C13.9326 11.0007 13.3741 11.1391 12.8725 11.4036C12.3709 11.6681 11.9412 12.0506 11.6204 12.5182L6.73864 10.314C7.08537 9.4767 7.08672 8.53624 6.74239 7.69797L11.6174 5.48247C12.0928 6.17004 12.7989 6.66444 13.6076 6.87601C14.4163 7.08757 15.274 7.00228 16.0252 6.6356C16.7764 6.26892 17.3713 5.64515 17.702 4.87742C18.0327 4.1097 18.0773 3.24888 17.8277 2.4511C17.578 1.65333 17.0507 0.971444 16.3414 0.529138C15.6321 0.0868325 14.7878 -0.0865986 13.9616 0.0403041C13.1353 0.167207 12.3819 0.586038 11.8381 1.22082C11.2942 1.85561 10.9958 2.66431 10.9971 3.50022C11.0003 3.69807 11.0204 3.89529 11.0571 4.08972L5.87464 6.44472C5.37689 5.97839 4.75377 5.6676 4.08182 5.55054C3.40987 5.43349 2.71836 5.51526 2.09225 5.78582C1.46613 6.05637 0.932682 6.50392 0.557436 7.07349C0.182189 7.64306 -0.0185125 8.30984 -0.0200111 8.99191C-0.0215097 9.67398 0.176259 10.3416 0.549 10.9128C0.92174 11.4841 1.45322 11.9339 2.07814 12.2073C2.70306 12.4806 3.3942 12.5654 4.06666 12.4513C4.73912 12.3372 5.3636 12.0291 5.86339 11.565L11.0594 13.911C11.0233 14.1052 11.0035 14.3022 11.0001 14.4997C11 15.1921 11.2052 15.8689 11.5897 16.4446C11.9743 17.0204 12.5209 17.4691 13.1606 17.7341C13.8002 17.9992 14.504 18.0685 15.1831 17.9335C15.8621 17.7985 16.4859 17.4651 16.9754 16.9755C17.465 16.486 17.7984 15.8622 17.9334 15.1832C18.0685 14.5041 17.9991 13.8003 17.7341 13.1606C17.469 12.521 17.0203 11.9744 16.4446 11.5898C15.8688 11.2053 15.192 11.0001 14.4996 11.0002ZM14.4996 1.49997C14.8953 1.49982 15.2821 1.61701 15.6111 1.83671C15.9402 2.05641 16.1967 2.36876 16.3482 2.73424C16.4997 3.09972 16.5394 3.50193 16.4623 3.88999C16.3852 4.27805 16.1948 4.63453 15.915 4.91435C15.6353 5.19416 15.2789 5.38474 14.8909 5.46198C14.5029 5.53922 14.1006 5.49966 13.7351 5.34828C13.3696 5.19691 13.0571 4.94054 12.8373 4.61158C12.6175 4.28262 12.5001 3.89587 12.5001 3.50022C12.5005 2.96997 12.7113 2.46155 13.0862 2.08654C13.461 1.71152 13.9694 1.50057 14.4996 1.49997ZM3.50014 11.0002C3.10449 11.0004 2.71769 10.8832 2.38866 10.6635C2.05962 10.4438 1.80312 10.1314 1.65161 9.76595C1.5001 9.40047 1.46039 8.99826 1.53748 8.6102C1.61458 8.22214 1.80502 7.86566 2.08473 7.58585C2.36444 7.30603 2.72085 7.11545 3.10888 7.03821C3.49691 6.96097 3.89914 7.00054 4.26468 7.15191C4.63022 7.30328 4.94266 7.55966 5.16248 7.88862C5.38231 8.21757 5.49964 8.60433 5.49964 8.99997C5.49904 9.53016 5.28822 10.0385 4.91339 10.4134C4.53856 10.7884 4.03033 10.9994 3.50014 11.0002ZM14.4996 16.5C14.104 16.5 13.7173 16.3827 13.3884 16.1629C13.0594 15.9431 12.803 15.6307 12.6516 15.2652C12.5003 14.8997 12.4606 14.4975 12.5378 14.1095C12.615 13.7215 12.8055 13.3651 13.0852 13.0853C13.365 12.8056 13.7214 12.6151 14.1094 12.5379C14.4974 12.4607 14.8996 12.5003 15.2651 12.6517C15.6306 12.8031 15.943 13.0595 16.1628 13.3884C16.3826 13.7174 16.4999 14.1041 16.4999 14.4997C16.4995 15.0301 16.2886 15.5386 15.9136 15.9137C15.5386 16.2887 15.03 16.4996 14.4996 16.5Z" fill="#EEEBDD"/>
</g>
<defs>
<clipPath id="clip0_111_119">
<rect width="18" height="18" fill="white"/>
</clipPath>
</defs>
</svg>
