<svg width="14" height="15" viewBox="0 0 14 15" fill="none" xmlns="http://www.w3.org/2000/svg">
<g id="star 1" clip-path="url(#clip0_2774_368)">
<path id="Vector" d="M0.773952 7.75837L2.85062 9.27504L2.06195 11.7175C1.9345 12.0963 1.93289 12.5061 2.05735 12.8859C2.18181 13.2657 2.42569 13.5951 2.75262 13.825C3.07395 14.0623 3.46335 14.1894 3.86279 14.1874C4.26224 14.1855 4.65034 14.0544 4.96929 13.814L6.99987 12.3195L9.03104 13.8122C9.35178 14.0481 9.73908 14.1763 10.1373 14.1782C10.5354 14.1802 10.924 14.0558 11.247 13.823C11.57 13.5902 11.8109 13.261 11.935 12.8826C12.0592 12.5043 12.0601 12.0964 11.9378 11.7175L11.1491 9.27504L13.2258 7.75837C13.5461 7.52417 13.7842 7.19473 13.9062 6.8171C14.0281 6.43947 14.0275 6.03298 13.9046 5.65568C13.7817 5.27838 13.5427 4.94958 13.2217 4.71623C12.9008 4.48289 12.5143 4.35694 12.1175 4.35637H9.56653L8.79245 1.94371C8.67072 1.56393 8.43153 1.23263 8.10935 0.997577C7.78718 0.762523 7.39867 0.635864 6.99987 0.635864C6.60106 0.635864 6.21256 0.762523 5.89039 0.997577C5.56821 1.23263 5.32901 1.56393 5.20729 1.94371L4.4332 4.35637H1.88462C1.4878 4.35694 1.10131 4.48289 0.780357 4.71623C0.4594 4.94958 0.220392 5.27838 0.0974725 5.65568C-0.0254471 6.03298 -0.0259911 6.43947 0.0959181 6.8171C0.217827 7.19473 0.455954 7.52417 0.776285 7.75837H0.773952Z" fill="#FFD200"/>
</g>
<defs>
<clipPath id="clip0_2774_368">
<rect width="14" height="14" fill="white" transform="translate(0 0.525024)"/>
</clipPath>
</defs>
</svg>
