<svg width="19" height="18" viewBox="0 0 19 18" fill="none" xmlns="http://www.w3.org/2000/svg">
<g id="fi-sr-cross" clip-path="url(#clip0_1412_497)">
<path id="Vector" d="M10.8103 9.00006L18.5301 1.28031C18.6667 1.13886 18.7423 0.949408 18.7406 0.75276C18.7389 0.556113 18.66 0.368003 18.521 0.228947C18.3819 0.0898912 18.1938 0.0110145 17.9971 0.0093057C17.8005 0.00759688 17.611 0.0831927 17.4696 0.219811L9.74984 7.93956L2.03009 0.219811C1.88864 0.0831927 1.69919 0.00759688 1.50254 0.0093057C1.30589 0.0110145 1.11778 0.0898912 0.978726 0.228947C0.83967 0.368003 0.760793 0.556113 0.759084 0.75276C0.757375 0.949408 0.832971 1.13886 0.96959 1.28031L8.68934 9.00006L0.96959 16.7198C0.828987 16.8605 0.75 17.0512 0.75 17.2501C0.75 17.4489 0.828987 17.6397 0.96959 17.7803C1.11024 17.9209 1.30097 17.9999 1.49984 17.9999C1.69871 17.9999 1.88944 17.9209 2.03009 17.7803L9.74984 10.0606L17.4696 17.7803C17.6102 17.9209 17.801 17.9999 17.9998 17.9999C18.1987 17.9999 18.3894 17.9209 18.5301 17.7803C18.6707 17.6397 18.7497 17.4489 18.7497 17.2501C18.7497 17.0512 18.6707 16.8605 18.5301 16.7198L10.8103 9.00006Z" fill="#EEEBDD"/>
</g>
<defs>
<clipPath id="clip0_1412_497">
<rect width="18" height="18" fill="white" transform="translate(0.75)"/>
</clipPath>
</defs>
</svg>
